<?xml version="1.0" encoding="UTF-8"?>
<svg id="Layer_2" data-name="Layer 2" xmlns="http://www.w3.org/2000/svg" viewBox="0 0 80 80">
  <defs>
    <style>
      .cls-1 {
        fill: #194185;
      }

      .cls-2 {
        fill: #80f291;
      }
    </style>
  </defs>
  <g id="Layer_1-2" data-name="Layer 1">
    <rect class="cls-1" width="80" height="80"/>
    <g>
      <path class="cls-2" d="m10.03,30.13c-1.71-1.99-2.56-4.63-2.56-7.94s.85-5.95,2.56-7.94c1.71-1.99,4.09-2.98,7.14-2.98,1.37,0,2.63.3,3.78.9,1.15.6,2.04,1.35,2.69,2.25v-2.81h3.53v29.74h-3.53v-11.26c-.64.87-1.53,1.59-2.67,2.16-1.13.57-2.4.86-3.8.86-3.05,0-5.43-.99-7.14-2.98Zm2.77-13.52c-1.15,1.43-1.72,3.29-1.72,5.59s.57,4.16,1.72,5.59c1.15,1.43,2.72,2.14,4.7,2.14s3.56-.71,4.7-2.14c1.15-1.43,1.72-3.29,1.72-5.59s-.57-4.16-1.72-5.59-2.72-2.14-4.7-2.14-3.56.71-4.7,2.14Z"/>
      <path class="cls-2" d="m31.24,26.35v-14.74h3.53v13.99c0,2.88,1.3,4.33,3.91,4.33,1.74,0,3.21-.89,4.41-2.67s1.81-4.15,1.81-7.12v-8.53h3.53v21.17h-3.53v-3.91c-.78,1.26-1.81,2.28-3.09,3.07-1.27.79-2.64,1.18-4.09,1.18-2.16,0-3.77-.6-4.85-1.81-1.08-1.2-1.62-2.86-1.62-4.96Z"/>
      <path class="cls-2" d="m70.81,19.42v13.36h-2.86l-.5-2.98c-.67.98-1.7,1.78-3.07,2.39-1.37.62-2.84.92-4.41.92-1.88,0-3.44-.55-4.68-1.66-1.25-1.11-1.87-2.7-1.87-4.77,0-2.29.85-4.02,2.54-5.19,1.69-1.16,4.04-1.74,7.04-1.74h4.28v-.92c0-1.54-.46-2.65-1.37-3.34-.91-.69-2.08-1.03-3.51-1.03-1.21,0-2.25.34-3.15,1.01-.9.67-1.51,1.54-1.85,2.6l-3.11-.84c.48-1.82,1.46-3.27,2.94-4.35,1.48-1.08,3.21-1.62,5.17-1.62,2.6,0,4.65.66,6.15,1.97s2.25,3.37,2.25,6.17Zm-13.78,7.27c0,1.01.31,1.8.94,2.37.63.57,1.48.86,2.54.86,1.68,0,3.23-.54,4.64-1.62,1.41-1.08,2.12-2.69,2.12-4.85v-.67h-4.62c-1.79,0-3.18.35-4.16,1.05-.98.7-1.47,1.65-1.47,2.86Z"/>
    </g>
    <g>
      <path class="cls-2" d="m7.2,51.8v-3.19h5.63v-6.34l3.53-2.23v8.57h10.33v3.19h-10.33v10.84c0,2.86,1.22,4.28,3.65,4.28,1.88,0,3.61-.84,5.21-2.52l1.3,2.98c-1.82,1.82-3.99,2.73-6.51,2.73-2.32,0-4.1-.62-5.33-1.85-1.23-1.23-1.85-3.07-1.85-5.5v-10.96h-5.63Z"/>
      <path class="cls-2" d="m49.74,55.32h-3.53c-.31-2.58-1.67-3.86-4.07-3.86-1.99,0-3.68.93-5.08,2.79-1.4,1.86-2.1,4.49-2.1,7.88v7.64h-3.53v-21.17h3.53v3.91c1.82-2.83,4.42-4.24,7.81-4.24,2.1,0,3.76.61,4.98,1.83,1.22,1.22,1.88,2.96,1.99,5.23Z"/>
      <path class="cls-2" d="m71.46,58.47v1.47h-16.55c.11,2.1.76,3.79,1.93,5.06,1.18,1.27,2.7,1.91,4.58,1.91,3.02,0,5.29-1.4,6.8-4.2l2.81,1.47c-2.04,3.95-5.25,5.92-9.62,5.92-3.02,0-5.47-1.04-7.33-3.11-1.86-2.07-2.79-4.68-2.79-7.81s.92-5.67,2.75-7.77c1.83-2.1,4.29-3.15,7.37-3.15s5.63.97,7.39,2.92c1.76,1.95,2.65,4.38,2.65,7.29Zm-10.04-7.01c-1.65,0-3.02.47-4.1,1.41s-1.8,2.23-2.16,3.88h12.56c-.31-1.68-1.01-2.98-2.1-3.91-1.09-.92-2.49-1.39-4.2-1.39Z"/>
    </g>
    <circle class="cls-2" cx="7.5" cy="9.5" r="1.5"/>
    <circle class="cls-2" cx="7.5" cy="71.5" r="1.5"/>
    <circle class="cls-2" cx="71.5" cy="9.5" r="1.5"/>
    <circle class="cls-2" cx="72.5" cy="71.5" r="1.5"/>
  </g>
</svg>