<?xml version="1.0" encoding="UTF-8"?>
<svg id="Layer_2" data-name="Layer 2" xmlns="http://www.w3.org/2000/svg" viewBox="0 0 144 144">
  <defs>
    <style>
      .cls-1 {
        fill: #194184;
      }

      .cls-2 {
        fill: #80f291;
      }
    </style>
  </defs>
  <g id="Layer_1-2" data-name="Layer 1">
    <rect class="cls-1" width="144" height="144" rx="4" ry="4"/>
    <g>
      <path class="cls-2" d="m23.44,53.51c-2.87-3.34-4.3-7.78-4.3-13.33s1.44-9.99,4.3-13.33c2.87-3.34,6.87-5.01,11.99-5.01,2.3,0,4.42.51,6.35,1.52,1.93,1.01,3.43,2.27,4.52,3.77v-4.73h5.92v49.95h-5.92v-18.91c-1.08,1.46-2.58,2.67-4.48,3.63-1.91.96-4.03,1.45-6.39,1.45-5.13,0-9.12-1.67-11.99-5.01Zm4.66-22.72c-1.93,2.4-2.89,5.53-2.89,9.38s.96,6.98,2.89,9.38c1.93,2.4,4.56,3.6,7.9,3.6s5.97-1.2,7.9-3.6c1.93-2.4,2.89-5.52,2.89-9.38s-.96-6.98-2.89-9.38-4.56-3.6-7.9-3.6-5.97,1.2-7.9,3.6Z"/>
      <path class="cls-2" d="m59.07,47.16v-24.76h5.92v23.49c0,4.85,2.19,7.27,6.56,7.27,2.92,0,5.38-1.49,7.41-4.48s3.03-6.97,3.03-11.96v-14.32h5.93v35.55h-5.93v-6.56c-1.32,2.12-3.04,3.83-5.18,5.15-2.14,1.32-4.43,1.97-6.88,1.97-3.62,0-6.34-1.01-8.15-3.03-1.81-2.02-2.72-4.8-2.72-8.32Z"/>
      <path class="cls-2" d="m125.52,35.52v22.43h-4.8l-.85-5.01c-1.13,1.65-2.85,2.99-5.15,4.02-2.3,1.03-4.77,1.55-7.41,1.55-3.15,0-5.77-.93-7.87-2.79-2.09-1.86-3.14-4.53-3.14-8.01,0-3.85,1.42-6.76,4.27-8.71,2.84-1.95,6.78-2.93,11.82-2.93h7.2v-1.55c0-2.59-.77-4.45-2.29-5.61-1.53-1.15-3.49-1.73-5.89-1.73-2.02,0-3.79.56-5.29,1.69-1.51,1.13-2.54,2.59-3.1,4.37l-5.22-1.41c.8-3.06,2.45-5.49,4.94-7.3,2.49-1.81,5.38-2.72,8.68-2.72,4.37,0,7.82,1.11,10.33,3.32s3.77,5.67,3.77,10.37Zm-23.14,12.2c0,1.69.53,3.02,1.59,3.99,1.06.96,2.48,1.45,4.27,1.45,2.82,0,5.42-.91,7.8-2.72,2.37-1.81,3.56-4.53,3.56-8.15v-1.13h-7.76c-3.01,0-5.34.59-6.98,1.76-1.65,1.18-2.47,2.78-2.47,4.8Z"/>
    </g>
    <g>
      <path class="cls-2" d="m16.68,91.91v-5.36h9.45v-10.65l5.92-3.74v14.39h17.35v5.36h-17.35v18.2c0,4.8,2.05,7.2,6.14,7.2,3.15,0,6.07-1.41,8.75-4.23l2.19,5.01c-3.06,3.06-6.7,4.58-10.93,4.58-3.9,0-6.89-1.03-8.96-3.1-2.07-2.07-3.1-5.15-3.1-9.24v-18.41h-9.45Z"/>
      <path class="cls-2" d="m88.14,97.84h-5.92c-.52-4.33-2.8-6.49-6.84-6.49-3.34,0-6.19,1.56-8.54,4.69-2.35,3.13-3.53,7.54-3.53,13.23v12.84h-5.93v-35.55h5.93v6.56c3.06-4.75,7.43-7.13,13.12-7.13,3.53,0,6.31,1.02,8.36,3.07,2.05,2.04,3.16,4.97,3.35,8.78Z"/>
      <path class="cls-2" d="m124.61,103.13v2.47h-27.79c.19,3.53,1.27,6.36,3.25,8.5,1.97,2.14,4.54,3.21,7.69,3.21,5.08,0,8.89-2.35,11.43-7.05l4.73,2.47c-3.43,6.63-8.82,9.95-16.15,9.95-5.08,0-9.18-1.74-12.31-5.22-3.13-3.48-4.69-7.85-4.69-13.12s1.54-9.52,4.62-13.05c3.08-3.53,7.21-5.29,12.38-5.29s9.45,1.64,12.42,4.9c2.96,3.27,4.44,7.35,4.44,12.24Zm-16.86-11.78c-2.78,0-5.07.79-6.88,2.36s-3.02,3.75-3.63,6.52h21.09c-.52-2.82-1.69-5.01-3.53-6.56-1.83-1.55-4.19-2.33-7.05-2.33Z"/>
    </g>
    <circle class="cls-2" cx="17.19" cy="17.87" r="2.52"/>
    <circle class="cls-2" cx="17.19" cy="126" r="2.52"/>
    <circle class="cls-2" cx="125.68" cy="17.87" r="2.52"/>
    <circle class="cls-2" cx="125.68" cy="126" r="2.52"/>
  </g>
</svg>